<svg width="98" height="98" viewBox="0 0 98 98" fill="none" xmlns="http://www.w3.org/2000/svg">
<path fill-rule="evenodd" clip-rule="evenodd" d="M94.1972 58.1807C99.2676 53.1103 99.2676 44.8897 94.1972 39.8193L58.1807 3.80277C53.1103 -1.26759 44.8897 -1.26759 39.8193 3.80277L3.80277 39.8193C-1.26759 44.8897 -1.26759 53.1103 3.80277 58.1807L39.8193 94.1972C44.8897 99.2676 53.1103 99.2676 58.1807 94.1972L94.1972 58.1807ZM48.9669 61.451C53.4657 61.451 57.4087 59.0714 59.6059 55.5021C59.7967 55.192 60.1294 54.9923 60.4935 54.9923H72.9657C73.6114 54.9923 74.0883 55.5961 73.9084 56.2162C70.7709 67.0295 60.792 74.9338 48.9669 74.9338C34.6258 74.9338 23 63.308 23 48.9669C23 34.6258 34.6258 23 48.9669 23C60.8169 23 70.813 30.9377 73.9282 41.7861C74.1061 42.4057 73.6294 43.0076 72.9847 43.0076H60.5338C60.1675 43.0076 59.8333 42.8055 59.643 42.4925C57.4534 38.8895 53.4912 36.4828 48.9669 36.4828C42.0721 36.4828 36.4828 42.0721 36.4828 48.9669C36.4828 55.8617 42.0721 61.451 48.9669 61.451Z" fill="#FF8200"/>
</svg>
