<svg width="424" height="98" viewBox="0 0 424 98" fill="none" xmlns="http://www.w3.org/2000/svg">
<path fill-rule="evenodd" clip-rule="evenodd" d="M94.1957 58.1798C99.266 53.1095 99.266 44.8889 94.1957 39.8187L58.1798 3.8027C53.1095 -1.26757 44.8889 -1.26757 39.8187 3.8027L3.8027 39.8187C-1.26757 44.8889 -1.26757 53.1095 3.8027 58.1798L39.8187 94.1957C44.8889 99.266 53.1095 99.266 58.1798 94.1957L94.1957 58.1798ZM48.9661 61.45C53.4648 61.45 57.4078 59.0704 59.6049 55.5012C59.7958 55.1911 60.1284 54.9914 60.4925 54.9914H72.9645C73.6103 54.9914 74.0871 55.5952 73.9072 56.2153C70.7698 67.0285 60.791 74.9326 48.9661 74.9326C34.6252 74.9326 22.9996 63.307 22.9996 48.9661C22.9996 34.6252 34.6252 22.9996 48.9661 22.9996C60.8159 22.9996 70.8119 30.9372 73.927 41.7854C74.1049 42.405 73.6282 43.0069 72.9835 43.0069H60.5328C60.1665 43.0069 59.8323 42.8048 59.6421 42.4918C57.4524 38.8889 53.4903 36.4822 48.9661 36.4822C42.0714 36.4822 36.4822 42.0715 36.4822 48.9661C36.4822 55.8608 42.0714 61.45 48.9661 61.45Z" fill="#FF8200"/>
<path d="M151.128 63.535C142.755 63.535 137.241 57.1032 137.241 48.9358C137.241 40.7684 142.755 34.3366 151.128 34.3366C156.997 34.3366 161.413 37.5342 162.675 42.419C162.734 42.6463 162.935 42.8103 163.17 42.8103H174.246C174.548 42.8103 174.782 42.5416 174.733 42.2427C172.953 31.2164 163.175 23.6169 151.128 23.6169C136.628 23.6169 125.498 34.5408 125.498 48.9358C125.498 63.2287 136.628 74.1526 151.128 74.1526C163.177 74.1526 172.956 66.6494 174.734 55.5264C174.782 55.2277 174.549 54.9593 174.246 54.9593H163.172C162.936 54.9593 162.734 55.1244 162.676 55.3526C161.416 60.335 156.999 63.535 151.128 63.535Z" fill="#FAFAFA"/>
<path d="M208.666 23.6169C193.962 23.6169 182.934 34.3366 182.934 48.9358C182.934 63.6371 193.962 74.561 208.666 74.561C223.267 74.561 234.295 63.6371 234.295 48.9358C234.295 34.3366 223.267 23.6169 208.666 23.6169ZM208.666 63.8413C200.293 63.8413 194.677 57.2053 194.677 48.9358C194.677 40.7684 200.293 34.3366 208.666 34.3366C216.937 34.3366 222.553 40.7684 222.553 48.9358C222.553 57.2053 216.937 63.8413 208.666 63.8413Z" fill="#FAFAFA"/>
<path d="M249.181 17.8567C253.266 17.8567 256.533 14.794 256.533 10.8124C256.533 6.62656 253.266 3.56379 249.181 3.56379C245.097 3.56379 241.829 6.62656 241.829 10.8124C241.829 14.794 245.097 17.8567 249.181 17.8567ZM255.104 25.2399C255.104 24.9638 254.88 24.7399 254.604 24.7399H243.86C243.585 24.7399 243.361 24.9638 243.361 25.2399V72.5296C243.361 72.8058 243.585 73.0296 243.86 73.0296H254.604C254.88 73.0296 255.104 72.8058 255.104 72.5296V25.2399Z" fill="#FAFAFA"/>
<path d="M292.884 23.2085C287.063 23.2085 282.162 25.2504 277.975 28.7215V25.2399C277.975 24.9638 277.752 24.7399 277.476 24.7399H266.63C266.354 24.7399 266.131 24.9638 266.131 25.2399V72.5296C266.131 72.8058 266.354 73.0296 266.63 73.0296H277.476C277.752 73.0296 277.975 72.8058 277.975 72.5296V41.0491C277.975 40.9336 278.016 40.8211 278.089 40.7322C281.746 36.3282 286.29 33.9282 290.433 33.9282C297.785 33.9282 302.278 38.6245 302.278 47.0981V72.5296C302.278 72.8058 302.501 73.0296 302.777 73.0296H313.521C313.797 73.0296 314.021 72.8058 314.021 72.5296V46.3835C314.021 32.3968 305.545 23.2085 292.884 23.2085Z" fill="#FAFAFA"/>
<path d="M329.556 17.8567C333.64 17.8567 336.908 14.794 336.908 10.8124C336.908 6.62656 333.64 3.56379 329.556 3.56379C325.471 3.56379 322.204 6.62656 322.204 10.8124C322.204 14.794 325.471 17.8567 329.556 17.8567ZM335.478 25.2399C335.478 24.9638 335.254 24.7399 334.978 24.7399H324.235C323.959 24.7399 323.735 24.9638 323.735 25.2399V72.5296C323.735 72.8058 323.959 73.0296 324.235 73.0296H334.978C335.254 73.0296 335.478 72.8058 335.478 72.5296V25.2399Z" fill="#FAFAFA"/>
<path d="M358.412 24.6378V21.6227C358.412 15.7013 362.394 11.8218 368.521 11.8218C370.117 11.8218 372.748 12.167 375.067 12.6193C375.378 12.68 375.669 12.443 375.669 12.1259V2.91428C375.669 2.68834 375.517 2.49032 375.299 2.432C371.728 1.47734 369.332 1 366.172 1C354.43 1 346.567 9.26949 346.567 21.6227V24.7399V34.6429V72.5296C346.567 72.8058 346.791 73.0296 347.067 73.0296H357.912C358.188 73.0296 358.412 72.8058 358.412 72.5296V34.6429H379.161C379.436 34.6429 379.66 34.419 379.66 34.1429V25.1378C379.66 24.8617 379.436 24.6378 379.161 24.6378H358.412Z" fill="#FAFAFA"/>
<path d="M423.953 25.3487C424.107 25.0173 423.865 24.6378 423.5 24.6378H412.144C411.95 24.6378 411.774 24.7502 411.691 24.9262L397.303 55.7491L383.589 24.9344C383.509 24.754 383.33 24.6378 383.133 24.6378H371.559C371.199 24.6378 370.957 25.0074 371.101 25.3376L390.488 69.8331C390.544 69.9636 390.543 70.1121 390.484 70.2415L380.599 91.7899C380.447 92.1211 380.689 92.4985 381.053 92.4985H392.413C392.607 92.4985 392.784 92.3858 392.866 92.2094L423.953 25.3487Z" fill="#FAFAFA"/>
</svg>
